PathFileType	4	(X/Y/Z)	C:/Users/opensim2020/Desktop/walking_exp_matlab/subject02_walking04_straight_02.trc																																																																																																																												
DataRate	CameraRate	NumFrames	NumMarkers	Units	OrigDataRate	OrigDataStartFrame	OrigNumFrames																																																																																																																								
100	100	4	42	mm	100	1688	220																																																																																																																								
Frame#	Time	LFHD			RFHD			LBHD			RBHD			C7			T10			CLAV			STRN			RBAK			LSHO			LUPA			LELB			LFRM			LWRA			LWRB			LFIN			RSHO			RUPA			RELB			RFRM			RWRA			RWRB			RFIN			LASI			RASI			LPSI			RPSI			LTHI			LKNE			LTIB			LANK			LHEE			LTOE			RTHI			RKNE			RTIB			RANK			RHEE			RTOE			*39			*40			*41		
		X1	Y1	Z1	X2	Y2	Z2	X3	Y3	Z3	X4	Y4	Z4	X5	Y5	Z5	X6	Y6	Z6	X7	Y7	Z7	X8	Y8	Z8	X9	Y9	Z9	X10	Y10	Z10	X11	Y11	Z11	X12	Y12	Z12	X13	Y13	Z13	X14	Y14	Z14	X15	Y15	Z15	X16	Y16	Z16	X17	Y17	Z17	X18	Y18	Z18	X19	Y19	Z19	X20	Y20	Z20	X21	Y21	Z21	X22	Y22	Z22	X23	Y23	Z23	X24	Y24	Z24	X25	Y25	Z25	X26	Y26	Z26	X27	Y27	Z27	X28	Y28	Z28	X29	Y29	Z29	X30	Y30	Z30	X31	Y31	Z31	X32	Y32	Z32	X33	Y33	Z33	X34	Y34	Z34	X35	Y35	Z35	X36	Y36	Z36	X37	Y37	Z37	X38	Y38	Z38	X39	Y39	Z39	X40	Y40	Z40	X41	Y41	Z41	X42	Y42	Z42
																																																																																																																															
193	1.92	668.97198	1704.90332	-1547.99194	652.86475	1687.30969	-1405.28625	526.66071	1659.39221	-1568.75623	498.82819	1643.58459	-1427.64722	441.17874	1518.74451	-1489.73181	385.42987	1237.1355	-1479.38782	575.67212	1442.22839	-1506.78625	628.05237	1274.34229	-1494.07715	381.85114	1342.65967	-1417.89355	495.75507	1483.56494	-1672.23035	462.10422	1282.38574	-1751.73914	449.04581	1143.1626	-1761.65381	446.4068	1012.32233	-1776.92993	491.02417	880.50208	-1749.71008	445.31714	889.46643	-1782.74426	455.96121	823.11853	-1786.54492	523.98309	1484.77722	-1308.41089	516.84747	1296.78198	-1215.60449	555.1087	1155.2002	-1187.08472	618.91675	1051.24121	-1173.02991	701.53882	946.65875	-1199.2572	662.08063	928.50073	-1162.42322	718.8775	883.68481	-1164.40259	635.64435	993.25696	-1618.42346	625.90076	961.21411	-1365.37256	420.95786	1021.10883	-1543.75732	413.54694	1015.97089	-1427.88892	619.08881	680.86707	-1676.38147	619.53149	477.32074	-1642.96094	581.53418	285.08701	-1640.01318	605.60852	65.714	-1602.53528	571.23541	38.21784	-1550.36609	763.00812	29.87906	-1612.16382	515.30005	656.50446	-1286.98743	494.09372	455.68237	-1295.05396	347.30731	341.987	-1298.30139	212.30617	208.85228	-1339.21484	163.21056	197.21878	-1403.99304	257.79077	50.52161	-1328.80261	575.68103	1791.38989	-1466.39221	-2845.19946	1033.88867	3360.302	NaN	NaN	NaN
194	1.93	678.80884	1705.71399	-1549.0719	662.40387	1688.08765	-1406.36169	536.50293	1660.49585	-1570.25244	508.28082	1644.64575	-1429.32166	450.56055	1519.95752	-1491.66357	394.66879	1238.23694	-1481.76611	584.93256	1443.24255	-1508.12463	636.98248	1275.2998	-1495.51965	390.28604	1343.76624	-1420.64478	505.9895	1484.81543	-1673.95154	475.04889	1283.19995	-1754.29797	464.59042	1143.8042	-1764.98975	464.89932	1012.91479	-1780.42615	512.10706	882.09143	-1752.9718	466.39896	890.15015	-1786.26233	478.89999	824.31226	-1790.6814	532.81323	1485.3457	-1309.61658	524.01282	1297.2074	-1217.37512	560.87781	1155.06677	-1189.83179	622.84082	1050.0155	-1175.66479	704.18109	944.19019	-1202.02734	664.52277	926.8609	-1164.84412	720.34094	880.57257	-1167.28748	644.01831	993.01813	-1620.04858	634.26324	962.24707	-1366.8833	429.73782	1022.24402	-1546.46094	421.73117	1016.85254	-1430.66931	625.02374	681.09485	-1677.28064	622.84344	477.40967	-1644.05859	584.08813	285.29846	-1641.38855	605.65692	65.72228	-1602.61206	571.10638	38.34977	-1550.47021	763.09497	29.75895	-1612.11035	529.73041	657.15625	-1287.78491	513.19672	456.3302	-1295.02124	365.57614	344.70474	-1299.44617	228.952	213.7384	-1341.77271	180.64107	201.05098	-1407.74658	273.19983	55.95376	-1325.56909	585.5058	1792.32251	-1467.6377	-2845.76074	1033.84375	3357.48169	NaN	NaN	NaN
195	1.94	688.76227	1706.42163	-1549.99414	671.90143	1688.75867	-1407.30627	546.38214	1661.5509	-1571.61353	517.7403	1645.67407	-1430.58374	459.93127	1521.2406	-1493.55078	403.3511	1239.52136	-1484.55945	594.13153	1444.19641	-1509.33008	645.83472	1276.14026	-1496.8324	398.81027	1345.01477	-1423.26929	516.39642	1486.03113	-1675.64331	488.19385	1284.08069	-1756.83679	480.20975	1144.51355	-1768.36108	483.33026	1013.69586	-1784.02197	533.47144	883.98309	-1756.19641	487.64969	890.95911	-1789.62927	501.93484	825.55463	-1794.40845	540.94696	1485.9646	-1311.05798	531.4798	1297.47192	-1218.75659	566.8197	1154.93506	-1192.35889	626.69763	1048.927	-1178.20166	706.64667	941.64783	-1204.54407	666.89716	925.31012	-1167.10632	721.76929	877.77393	-1170.12708	652.94836	992.84601	-1621.5824	642.32813	963.28772	-1367.88354	438.41684	1023.48364	-1549.12488	429.71289	1017.70532	-1433.46692	630.88062	681.29297	-1678.41772	626.25604	477.41391	-1644.96619	586.57996	285.41367	-1642.77661	605.78729	65.71246	-1602.67346	571.1723	38.09415	-1550.43958	763.1369	29.68846	-1612.08386	543.99786	658.28479	-1288.44824	531.86407	457.50476	-1295.09387	384.00528	347.62799	-1301.17651	246.50597	217.86581	-1344.88623	199.29945	203.21071	-1411.979	290.36798	61.03675	-1322.34094	595.35461	1793.24585	-1468.76843	-2845.79175	1033.91992	3357.52222	NaN	NaN	NaN
196	1.95	698.58167	1707.13684	-1550.79016	681.40564	1689.46875	-1408.20142	556.37805	1662.51843	-1572.5929	527.15289	1646.67334	-1431.91626	469.31107	1522.52515	-1495.31226	412.13937	1240.75781	-1487.18225	603.21643	1445.0647	-1510.4259	654.59283	1276.89392	-1497.97559	407.38971	1346.02844	-1425.97644	526.96399	1487.20178	-1677.27271	501.46982	1285.00647	-1759.39282	496.01221	1145.28882	-1771.69458	502.09277	1014.49817	-1787.39856	554.93433	886.15472	-1759.35327	509.14255	891.93268	-1792.90991	525.23798	827.21313	-1797.95776	549.50488	1486.41626	-1312.12012	537.55878	1297.56616	-1220.78601	572.08081	1154.63135	-1195.01904	630.94824	1047.91541	-1180.44971	709.15491	939.41034	-1206.93774	669.0592	923.75397	-1169.34924	722.91248	874.83453	-1172.59875	661.80402	992.45728	-1622.91846	650.18903	964.32806	-1368.47803	446.91718	1024.72083	-1551.66345	437.50363	1018.63306	-1436.24023	636.49243	681.34106	-1679.46765	629.64539	477.2561	-1645.77087	588.99591	285.39359	-1643.854	605.9209	65.71339	-1602.66138	571.11694	38.17298	-1550.43762	763.18597	29.62286	-1612.05151	558.04266	659.80334	-1288.98474	550.95612	459.52106	-1295.43665	402.60544	350.17807	-1303.06702	265.09204	220.77364	-1347.81189	218.9619	203.6684	-1415.79041	310.13892	65.88584	-1318.22607	605.16388	1794.06384	-1469.76147	-2845.22266	1033.70593	3360.42822	NaN	NaN	NaN
